<svg width="24" height="25" viewBox="0 0 24 25" fill="none" xmlns="http://www.w3.org/2000/svg">
<g clip-path="url(#clip0_226_2398)">
<path d="M12 0.5C5.3828 0.5 0 5.88331 0 12.5C0 19.1167 5.3828 24.5 12 24.5C18.6172 24.5 24 19.1167 24 12.5C24 5.88331 18.6172 0.5 12 0.5ZM12 23.5C5.93456 23.5 0.999984 18.5654 0.999984 12.5C0.999984 6.43456 5.93456 1.49998 12 1.49998C18.0654 1.49998 23 6.43456 23 12.5C23 18.5654 18.0654 23.5 12 23.5Z" fill="#888888"/>
<path d="M16.7705 12.0797L9.77053 7.57969C9.6172 7.47961 9.41897 7.47422 9.26077 7.56113C9.09961 7.64902 9 7.81702 9 8.00011V17.0001C9 17.1832 9.09961 17.3512 9.26077 17.4391C9.33497 17.4796 9.41798 17.5001 9.50002 17.5001C9.59377 17.5001 9.6885 17.4737 9.77053 17.4205L16.7705 12.9205C16.9131 12.8288 17 12.67 17 12.5001C17 12.3302 16.9131 12.1715 16.7705 12.0797ZM9.99998 16.0841V8.91614L15.5752 12.5001L9.99998 16.0841Z" fill="#888888"/>
</g>
<defs>
<clipPath id="clip0_226_2398">
<rect width="24" height="24" fill="white" transform="translate(0 0.5)"/>
</clipPath>
</defs>
</svg>
