<svg width="26" height="24" viewBox="0 0 26 24" fill="none" xmlns="http://www.w3.org/2000/svg">
<path d="M25.04 21.1192V11.4795C25.04 10.6741 24.6929 9.90768 24.0877 9.3763L14.8463 1.26349C13.7901 0.336197 12.2099 0.336198 11.1536 1.26349L1.91227 9.3763C1.30697 9.90768 0.959961 10.6741 0.959961 11.4795V21.1192C0.959961 22.6649 2.21297 23.9179 3.75864 23.9179L7.53073 23.9179C9.0764 23.9179 10.3294 22.6649 10.3294 21.1192V17.4626C10.3294 16.6898 10.9559 16.0633 11.7288 16.0633H14.1057C14.8785 16.0633 15.505 16.6898 15.505 17.4626V21.1192C15.505 22.6649 16.758 23.9179 18.3037 23.9179L22.2413 23.9179C23.7869 23.9179 25.04 22.6649 25.04 21.1192Z" fill="#1752A8"/>
</svg>
