<svg width="23" height="23" viewBox="0 0 23 23" fill="none" xmlns="http://www.w3.org/2000/svg">
<path d="M20 0.75H14C13.0335 0.75 12.25 1.5335 12.25 2.5V8.5C12.25 9.4665 13.0335 10.25 14 10.25H20C20.9665 10.25 21.75 9.4665 21.75 8.5V2.5C21.75 1.5335 20.9665 0.75 20 0.75Z" fill="#1752A8"/>
<path d="M21.7333 16.2632L18.2372 12.7671C17.9086 12.4397 17.4637 12.2559 16.9999 12.2559C16.5361 12.2559 16.0911 12.4397 15.7626 12.7671L12.2665 16.2632C11.9389 16.5916 11.7549 17.0366 11.7549 17.5005C11.7549 17.9644 11.9389 18.4094 12.2665 18.7378L15.7626 22.2339C16.091 22.5616 16.536 22.7456 16.9999 22.7456C17.4638 22.7456 17.9088 22.5616 18.2372 22.2339L21.7333 18.7378C22.0611 18.4095 22.2452 17.9645 22.2452 17.5005C22.2452 17.0365 22.0611 16.5915 21.7333 16.2632Z" fill="#1752A8"/>
<path d="M8 0.75H2C1.0335 0.75 0.25 1.5335 0.25 2.5V8.5C0.25 9.4665 1.0335 10.25 2 10.25H8C8.9665 10.25 9.75 9.4665 9.75 8.5V2.5C9.75 1.5335 8.9665 0.75 8 0.75Z" fill="#1752A8"/>
<path d="M8 12.75H2C1.0335 12.75 0.25 13.5335 0.25 14.5V20.5C0.25 21.4665 1.0335 22.25 2 22.25H8C8.9665 22.25 9.75 21.4665 9.75 20.5V14.5C9.75 13.5335 8.9665 12.75 8 12.75Z" fill="#1752A8"/>
</svg>
