<svg width="24" height="25" viewBox="0 0 24 25" fill="none" xmlns="http://www.w3.org/2000/svg">
<path d="M21 11.25H15C14.536 11.2494 14.0913 11.0649 13.7632 10.7368C13.4351 10.4087 13.2506 9.96396 13.25 9.5V3.5C13.2506 3.03604 13.4351 2.59125 13.7632 2.26319C14.0913 1.93512 14.536 1.75056 15 1.75H21C21.464 1.75056 21.9087 1.93512 22.2368 2.26319C22.5649 2.59125 22.7494 3.03604 22.75 3.5V9.5C22.7494 9.96396 22.5649 10.4087 22.2368 10.7368C21.9087 11.0649 21.464 11.2494 21 11.25ZM15 3.25C14.9337 3.25013 14.8702 3.27651 14.8234 3.32336C14.7765 3.37022 14.7501 3.43373 14.75 3.5V9.5C14.7501 9.56627 14.7765 9.62978 14.8234 9.67664C14.8702 9.72349 14.9337 9.74987 15 9.75H21C21.0663 9.74987 21.1298 9.72349 21.1766 9.67664C21.2235 9.62978 21.2499 9.56627 21.25 9.5V3.5C21.2499 3.43373 21.2235 3.37022 21.1766 3.32336C21.1298 3.27651 21.0663 3.25013 21 3.25H15Z" fill="#888888"/>
<path d="M17.9999 23.7444C17.7701 23.7449 17.5425 23.6999 17.3301 23.6121C17.1178 23.5243 16.9249 23.3953 16.7626 23.2327L13.2665 19.7366C12.9389 19.4081 12.7549 18.9632 12.7549 18.4993C12.7549 18.0354 12.9389 17.5904 13.2665 17.262L16.7626 13.7659C17.0909 13.438 17.5359 13.2539 17.9999 13.2539C18.4639 13.2539 18.9089 13.438 19.2372 13.7659L22.7333 17.262C23.0611 17.5903 23.2452 18.0353 23.2452 18.4993C23.2452 18.9632 23.0611 19.4082 22.7333 19.7366L19.2372 23.2327C19.0749 23.3953 18.882 23.5243 18.6696 23.6121C18.4573 23.6999 18.2297 23.7449 17.9999 23.7444ZM17.9999 14.7532C17.967 14.7531 17.9345 14.7595 17.9042 14.7721C17.8738 14.7847 17.8463 14.8031 17.8231 14.8264L14.327 18.3225C14.3038 18.3457 14.2854 18.3733 14.2728 18.4036C14.2603 18.4339 14.2538 18.4664 14.2538 18.4993C14.2538 18.5321 14.2603 18.5646 14.2728 18.5949C14.2854 18.6253 14.3038 18.6528 14.327 18.676L17.8231 22.1721C17.8463 22.1953 17.8739 22.2138 17.9042 22.2263C17.9345 22.2389 17.9671 22.2454 17.9999 22.2454C18.0327 22.2454 18.0652 22.2389 18.0955 22.2263C18.1259 22.2138 18.1534 22.1953 18.1766 22.1721L21.6727 18.676C21.696 18.6528 21.7144 18.6253 21.7269 18.5949C21.7395 18.5646 21.746 18.5321 21.746 18.4993C21.746 18.4664 21.7395 18.4339 21.7269 18.4036C21.7144 18.3733 21.696 18.3457 21.6727 18.3225L18.1766 14.8264C18.1535 14.8031 18.1259 14.7847 18.0956 14.7721C18.0653 14.7595 18.0327 14.7531 17.9999 14.7532Z" fill="#888888"/>
<path d="M9 11.25H3C2.53604 11.2494 2.09125 11.0649 1.76319 10.7368C1.43512 10.4087 1.25056 9.96396 1.25 9.5V3.5C1.25056 3.03604 1.43512 2.59125 1.76319 2.26319C2.09125 1.93512 2.53604 1.75056 3 1.75H9C9.46396 1.75056 9.90875 1.93512 10.2368 2.26319C10.5649 2.59125 10.7494 3.03604 10.75 3.5V9.5C10.7494 9.96396 10.5649 10.4087 10.2368 10.7368C9.90875 11.0649 9.46396 11.2494 9 11.25ZM3 3.25C2.93373 3.25013 2.87022 3.27651 2.82336 3.32336C2.77651 3.37022 2.75013 3.43373 2.75 3.5V9.5C2.75013 9.56627 2.77651 9.62978 2.82336 9.67664C2.87022 9.72349 2.93373 9.74987 3 9.75H9C9.06627 9.74987 9.12978 9.72349 9.17664 9.67664C9.22349 9.62978 9.24987 9.56627 9.25 9.5V3.5C9.24987 3.43373 9.22349 3.37022 9.17664 3.32336C9.12978 3.27651 9.06627 3.25013 9 3.25H3Z" fill="#888888"/>
<path d="M9 23.25H3C2.53604 23.2494 2.09125 23.0649 1.76319 22.7368C1.43512 22.4087 1.25056 21.964 1.25 21.5V15.5C1.25056 15.036 1.43512 14.5913 1.76319 14.2632C2.09125 13.9351 2.53604 13.7506 3 13.75H9C9.46396 13.7506 9.90875 13.9351 10.2368 14.2632C10.5649 14.5913 10.7494 15.036 10.75 15.5V21.5C10.7494 21.964 10.5649 22.4087 10.2368 22.7368C9.90875 23.0649 9.46396 23.2494 9 23.25ZM3 15.25C2.93373 15.2501 2.87022 15.2765 2.82336 15.3234C2.77651 15.3702 2.75013 15.4337 2.75 15.5V21.5C2.75013 21.5663 2.77651 21.6298 2.82336 21.6766C2.87022 21.7235 2.93373 21.7499 3 21.75H9C9.06627 21.7499 9.12978 21.7235 9.17664 21.6766C9.22349 21.6298 9.24987 21.5663 9.25 21.5V15.5C9.24987 15.4337 9.22349 15.3702 9.17664 15.3234C9.12978 15.2765 9.06627 15.2501 9 15.25H3Z" fill="#888888"/>
</svg>
