<svg width="24" height="25" viewBox="0 0 24 25" fill="none" xmlns="http://www.w3.org/2000/svg">
<g clip-path="url(#clip0_226_4444)">
<path d="M21.9844 11.3822C21.4324 11.3822 20.9845 10.9343 20.9845 10.3822C20.9845 7.57726 19.8924 4.94127 17.9094 2.95714C17.5185 2.56621 17.5185 1.93431 17.9094 1.5432C18.3003 1.15227 18.9324 1.15227 19.3233 1.5432C21.6845 3.90416 22.9844 7.04332 22.9844 10.3822C22.9844 10.9343 22.5365 11.3822 21.9844 11.3822Z" fill="#1752A8"/>
<path d="M1.98431 11.3822C1.43243 11.3822 0.984375 10.9343 0.984375 10.3822C0.984375 7.04332 2.28442 3.90416 4.64539 1.5432C5.03632 1.15227 5.6684 1.15227 6.05933 1.5432C6.45044 1.93431 6.45044 2.56621 6.05933 2.95714C4.07629 4.94017 2.98444 7.57726 2.98444 10.3822C2.98444 10.9343 2.53638 11.3822 1.98431 11.3822Z" fill="#1752A8"/>
<path d="M21.3635 17.4131C19.8514 16.135 18.9844 14.267 18.9844 12.288V9.5C18.9844 5.98108 16.3704 3.06805 12.9844 2.58008V1.49994C12.9844 0.94696 12.5364 0.5 11.9845 0.5C11.4324 0.5 10.9844 0.94696 10.9844 1.49994V2.58008C7.59747 3.06805 4.98438 5.98108 4.98438 9.5V12.288C4.98438 14.267 4.11737 16.135 2.5965 17.421C2.2074 17.754 1.98438 18.238 1.98438 18.7499C1.98438 19.7151 2.76935 20.5001 3.7345 20.5001H20.2345C21.1995 20.5001 21.9844 19.7151 21.9844 18.7499C21.9844 18.238 21.7614 17.754 21.3635 17.4131Z" fill="#1752A8"/>
<path d="M11.9846 24.5C13.7955 24.5 15.3105 23.2089 15.6586 21.5H8.31055C8.65845 23.2089 10.1735 24.5 11.9846 24.5Z" fill="#1752A8"/>
</g>
<defs>
<clipPath id="clip0_226_4444">
<rect width="24" height="24" fill="white" transform="translate(0 0.5)"/>
</clipPath>
</defs>
</svg>
