<svg width="24" height="25" viewBox="0 0 24 25" fill="none" xmlns="http://www.w3.org/2000/svg">
<g clip-path="url(#clip0_226_2379)">
<path d="M22.2339 11.2498C21.8199 11.2498 21.4839 10.9138 21.4839 10.4998C21.4839 7.62781 20.366 4.92883 18.3359 2.89783C18.043 2.60486 18.043 2.12988 18.3359 1.83691C18.6289 1.54395 19.1039 1.54395 19.397 1.83691C21.71 4.15082 22.9839 7.22791 22.9839 10.4998C22.9839 10.9138 22.6479 11.2498 22.2339 11.2498Z" fill="#888888"/>
<path d="M1.73438 11.2509C1.32037 11.2509 0.984375 10.9149 0.984375 10.5009C0.984375 7.22894 2.25842 4.15186 4.57233 1.83887C4.8653 1.5459 5.34045 1.5459 5.63342 1.83887C5.92639 2.13184 5.92639 2.60699 5.63342 2.89996C3.60242 4.92987 2.48438 7.62885 2.48438 10.5009C2.48438 10.9149 2.14838 11.2509 1.73438 11.2509Z" fill="#888888"/>
<path d="M11.9844 24.5C9.91638 24.5 8.23438 22.818 8.23438 20.75C8.23438 20.336 8.57037 20 8.98438 20C9.39838 20 9.73438 20.336 9.73438 20.75C9.73438 21.9911 10.7433 23 11.9844 23C13.2253 23 14.2344 21.9911 14.2344 20.75C14.2344 20.336 14.5704 20 14.9844 20C15.3984 20 15.7344 20.336 15.7344 20.75C15.7344 22.818 14.0524 24.5 11.9844 24.5Z" fill="#888888"/>
<path d="M20.2345 21.5H3.7345C2.76935 21.5 1.98438 20.715 1.98438 19.7501C1.98438 19.2379 2.2074 18.7531 2.5965 18.42C4.11737 17.1349 4.98437 15.2671 4.98437 13.2881V10.4999C4.98437 6.64008 8.12445 3.5 11.9845 3.5C15.8444 3.5 18.9844 6.64008 18.9844 10.4999V13.2881C18.9844 15.2671 19.8514 17.1349 21.3624 18.413C21.7614 18.7531 21.9844 19.2379 21.9844 19.7501C21.9844 20.715 21.1995 21.5 20.2345 21.5ZM11.9845 5C8.95135 5 6.48437 7.46698 6.48437 10.4999V13.2881C6.48437 15.7089 5.42346 17.995 3.57446 19.558C3.53949 19.588 3.48437 19.6501 3.48437 19.7501C3.48437 19.8859 3.59845 20 3.7345 20H20.2345C20.3704 20 20.4844 19.8859 20.4844 19.7501C20.4844 19.6501 20.4295 19.588 20.3964 19.56C18.5453 17.995 17.4844 15.7089 17.4844 13.2881V10.4999C17.4844 7.46698 15.0175 5 11.9845 5Z" fill="#888888"/>
<path d="M11.9844 5C11.5704 5 11.2344 4.664 11.2344 4.25V1.25C11.2344 0.835999 11.5704 0.5 11.9844 0.5C12.3984 0.5 12.7344 0.835999 12.7344 1.25V4.25C12.7344 4.664 12.3984 5 11.9844 5Z" fill="#888888"/>
</g>
<defs>
<clipPath id="clip0_226_2379">
<rect width="24" height="24" fill="white" transform="translate(0 0.5)"/>
</clipPath>
</defs>
</svg>
